<?xml version="1.0" encoding="utf-8"?>
<!-- Generator: Adobe Illustrator 16.0.0, SVG Export Plug-In . SVG Version: 6.00 Build 0)  -->
<!DOCTYPE svg PUBLIC "-//W3C//DTD SVG 1.1//EN" "http://www.w3.org/Graphics/SVG/1.1/DTD/svg11.dtd">
<svg version="1.1" id="Layer_1" xmlns="http://www.w3.org/2000/svg" xmlns:xlink="http://www.w3.org/1999/xlink" x="0px" y="0px"
	 width="600px" height="600px" viewBox="0 0 600 600" enable-background="new 0 0 600 600" xml:space="preserve">
<g transform="translate(0.000000, -1.000000)">
	<path fill="#B3B3B3" d="M299.126,11L26.238,107.035L69.36,464.559L299.417,591l231.239-128.152l43.105-357.514L299.126,11z"/>
	<path fill="#A6120D" d="M546.541,125.996L298.488,41.407v519.386l207.88-115.051L546.541,125.996z"/>
	<path fill="#DD1B16" d="M56.86,127.522l36.954,319.746l204.671,113.524V41.395L56.86,127.522z"/>
	<path fill="#F2F2F2" d="M366.769,317.9l-68.279,31.928h-71.967l-33.83,84.615l-62.924,1.166l168.72-375.342L366.769,317.9
		L366.769,317.9z M360.169,301.826L298.94,180.614L248.72,299.741h49.766L360.169,301.826L360.169,301.826z"/>
	<path fill="#B3B3B3" d="M298.484,60.267l0.452,120.347l56.987,119.219h-57.31l-0.13,49.919l79.247,0.076l37.037,85.796
		l60.209,1.116L298.484,60.267z"/>
</g>
</svg>
